<?xml version="1.0" encoding="UTF-8"?>
<svg width="400" height="196" version="1.1" viewBox="0 0 400 196" xmlns="http://www.w3.org/2000/svg" xmlns:cc="http://creativecommons.org/ns#" xmlns:dc="http://purl.org/dc/elements/1.1/" xmlns:rdf="http://www.w3.org/1999/02/22-rdf-syntax-ns#">
 <metadata>
  <rdf:RDF>
   <cc:Work rdf:about="">
    <dc:format>image/svg+xml</dc:format>
    <dc:type rdf:resource="http://purl.org/dc/dcmitype/StillImage"/>
    <dc:title>logo-cleanedup</dc:title>
   </cc:Work>
  </rdf:RDF>
 </metadata>
 <title>logo-cleanedup</title>
 <g fill="#40474f">
  <path d="m247.66 56.8h12.919l3.8406 10.474h3.4915l-12.22-32.471h-3.1424l-12.22 32.471h3.4915zm5.2372-14.664 1.0474-4.1898h0.34915l1.0474 4.1898 4.5389 11.871h-11.173z"/>
  <polygon transform="matrix(3.4915 0 0 3.4915 5 4.7771)" points="81.5 17.1 77.2 17.1 77.2 8.6 76.3 8.6 76.3 17.9 81.5 17.9" stroke-width=".28641"/>
  <g>
   <path d="m303.52 67.973a16.061 16.061 0 0 0 13.617-6.983v-9.427h-13.268v3.1423h10.125v5.2372a13.966 13.966 0 0 1-10.125 4.8881 13.268 13.268 0 0 1-13.268-13.966 13.268 13.268 0 0 1 13.268-13.617 16.41 16.41 0 0 1 9.7762 3.1423l1.7457-2.444a16.759 16.759 0 0 0-11.522-3.8406 16.41 16.41 0 0 0-16.41 16.759 16.41 16.41 0 0 0 16.061 17.108"/>
   <path d="m324.47 56.8h13.268l3.8406 10.474h3.1423l-11.871-32.471h-3.4915l-11.871 32.471h3.4915zm5.5864-14.664 1.0474-4.1898a27.583 27.583 0 0 0 1.3966 4.1898l4.1898 11.871h-11.173z"/>
   <path d="m351.36 53.658h8.0304l7.6813 13.617h3.4915l-6.983-13.268-1.0474-1.0474a8.3796 8.3796 0 0 0 6.2847-8.7287 8.7287 8.7287 0 0 0-4.8881-8.3796 20.6 20.6 0 0 0-5.9355-0.6983h-9.7762v32.471h3.1423zm0-16.061h6.6338a12.22 12.22 0 0 1 4.539 0.6983 6.6338 6.6338 0 0 1 3.1423 5.9355 6.2847 6.2847 0 0 1-6.6338 6.6338h-7.6813z"/>
   <path d="m380.68 67.275h3.1424v-13.966l11.173-18.505h-3.8406l-6.6338 11.522-2.0949 4.1898-2.0949-4.1898-6.983-11.522h-3.4915l10.824 18.505z"/>
   <path d="m221.47 80.892h-11.522v32.82h3.4915v-12.919h8.0304a9.427 9.427 0 0 0 9.7762-9.7762 9.427 9.427 0 0 0-9.7762-10.125m-0.69829 17.108h-7.6813v-13.966h7.6813a6.6338 6.6338 0 0 1 7.3321 6.983 6.6338 6.6338 0 0 1-7.3321 6.983"/>
   <path d="m261.28 101.84v-20.949h-3.1424v20.949a8.3796 8.3796 0 0 1-9.427 9.0779 8.3796 8.3796 0 0 1-9.0779-9.0779v-20.949h-3.1424v20.949a11.871 11.871 0 0 0 12.569 12.22 11.522 11.522 0 0 0 12.22-12.22"/>
   <path d="m288.86 104.63a7.3321 7.3321 0 0 0-5.5864-8.0304 7.3321 7.3321 0 0 0 4.1898-6.983 8.0304 8.0304 0 0 0-8.7287-8.3796h-11.173v32.82h11.522a9.0779 9.0779 0 0 0 9.7762-9.0779zm-18.156-20.6h7.6813a5.2372 5.2372 0 0 1 5.5864 5.5864 5.2372 5.2372 0 0 1-5.2372 5.5864h-8.0304zm0 13.966h8.3796a5.9355 5.9355 0 0 1 6.2847 6.2847 5.9355 5.9355 0 0 1-6.2847 6.6338h-8.3796z"/>
  </g>
  <polygon transform="matrix(3.4915 0 0 3.4915 5 4.7771)" points="83 21.8 83 31.2 88.2 31.2 88.2 30.4 83.9 30.4 83.9 21.8" stroke-width=".28641"/>
  <rect x="318.54" y="80.892" width="3.4915" height="32.576"/>
  <polygon transform="matrix(3.4915 0 0 3.4915 5 4.7771)" points="61.1 34.9 58.8 34.9 58.8 44.4 65 44.4 65 42.4 61.1 42.4" stroke-width=".28641"/>
  <g>
   <rect x="236.49" y="126.63" width="8.0304" height="33.169"/>
   <path d="m269.31 142.34a8.0304 8.0304 0 0 0 3.8406-6.983c0-5.9355-4.5389-8.7287-11.173-8.7287h-12.22v33.169h12.22c6.6338 0 12.569-2.444 12.569-9.7762a7.3321 7.3321 0 0 0-5.2372-7.6813zm-11.522-8.7287h4.1898c2.0949 0 3.1423 1.0474 3.1423 2.7932a3.1423 3.1423 0 0 1-3.1423 3.1423h-4.1898zm4.8881 19.203h-4.8881v-6.983h4.8881a3.4915 3.4915 0 0 1 0 6.983z"/>
   <path d="m297.24 146.18a10.125 10.125 0 0 0 5.2372-9.0779 9.7762 9.7762 0 0 0-6.2847-9.7762 14.664 14.664 0 0 0-6.2847-0.6983h-11.522v33.169h8.0304v-11.173h3.8406l5.9355 11.173h9.0779l-6.6338-11.871-1.3966-1.7458m-7.3321-4.5389h-3.4915v-8.0304h2.7932c3.8406 0 4.8881 1.3966 4.8881 3.8406a3.8406 3.8406 0 0 1-4.1898 4.1898"/>
   <path d="m318.19 126.63-11.173 33.169h8.3796l2.0949-6.983h10.125l2.0949 6.983h8.3796l-11.173-33.169zm1.0474 19.552 2.0949-6.2847 1.0474-5.5864h0.34915l1.0474 5.5864 2.0949 6.2847z"/>
   <path d="m360.09 146.18a10.474 10.474 0 0 0 4.8881-9.0779 9.7762 9.7762 0 0 0-6.2847-9.7762 13.617 13.617 0 0 0-6.2847-0.6983h-11.522v33.169h8.0304v-11.173h3.8406l5.9355 11.173h9.0779l-6.2847-11.871-1.3966-1.7458m-7.6813-4.5389h-3.4915v-8.0304h2.7932c4.1898 0 5.2372 1.3966 5.2372 3.8406a4.1898 4.1898 0 0 1-4.5389 4.1898"/>
   <path d="m382.08 134.66-2.0949 4.5389-2.0949-4.5389-3.8406-8.0304h-9.0779l10.824 19.552v13.617h8.3796v-13.617l10.824-19.552h-9.0779z"/>
   <path d="m237.18 59.943a14.664 14.664 0 0 1-11.173 5.2372 14.315 14.315 0 0 1 0-28.281 14.664 14.664 0 0 1 11.173 5.2372l2.0949-2.0949a17.108 17.108 0 1 0-13.268 27.932 17.108 17.108 0 0 0 13.268-5.9355z"/>
   <path d="m354.5 106.03a13.617 13.617 0 0 1-10.824 5.2372 13.966 13.966 0 0 1 0-27.932 13.617 13.617 0 0 1 10.824 5.2372l2.444-2.444a18.156 18.156 0 0 0-13.268-5.9355 17.108 17.108 0 0 0 0 34.217 18.156 18.156 0 0 0 13.268-5.9355z"/>
   <path d="m99.62 20.14v-15.363h-4.8881v15.712l-14.664 8.3796c-2.444-4.5389-6.6338-13.268-9.7762-20.251l-5.2372 1.7457 10.125 21.298-10.474 6.2847-23.742-13.966-4.5389 3.1423 23.044 13.617-27.234 16.061-13.966-8.0304-2.7932 4.5389 12.919 7.3321-16.061 23.044-6.2847-3.8406-1.0474 5.5864 23.742 13.617v18.505l-22.695-1.3966 1.3966 5.5864 21.298 1.0474v12.569l-12.919 7.3321 2.444 4.5389 13.966-8.0304 27.234 16.41-22.695 13.268 4.1898 3.1424 20.6-11.871v23.742l4.8881 2.0949v-28.979l27.932-16.061v32.122l-24.091 13.966 6.983 2.0949 17.807-10.474 6.2847 12.569 5.9356-0.6983-7.3321-14.664v-34.915l26.885 16.061v29.329l5.5864-1.7458v-24.091l20.6 12.22 4.1898-3.4915-22.695-13.617 27.583-16.061 13.966 8.3796 2.444-4.5389-11.522-6.983 19.552-11.173 2.0949-6.983-22.695 13.268v-32.122l24.091-13.966-1.0474-5.5864-26.535 15.712-14.315-8.7287 18.505-26.186 12.569-7.3321-2.444-4.5389-14.315 8.3796-27.583-16.061 23.393-13.617-4.1898-3.4915-21.298 12.22v-24.44l-4.8881-1.7457v26.535zm-82.748 65.989 17.457-24.44 27.234-16.061v32.122l-29.329 17.457zm49.928-41.2 27.932 16.41v32.471l-27.932-16.41zm32.82 18.854 27.932 2.0949v11.522l-27.932 16.41zm-34.915 18.156 10.125 6.2847-12.569 24.79-25.139-14.664zm-30.725 52.722v-32.471l27.583 16.41v32.122zm32.82-17.457 12.569-26.535 15.363 9.0779v35.264l-27.932 16.061zm32.82-17.457 27.932-16.41v32.471l-27.932 16.061zm30.027 52.722-27.583-16.061 26.885-15.712 12.22 25.139zm31.074-52.372v34.566l-15.013 8.7287-12.919-26.535v-33.169zm-1.0474-38.756-16.061 23.044-10.824-6.2847v-32.471zm-32.122-18.854v18.156l-27.932-2.0949-30.027-17.807 27.583-16.061z"/>
  </g>
 </g>
</svg>
